<svg version="1.1" xmlns="http://www.w3.org/2000/svg" viewBox="0 0 559.3902300275104 598.9669942356" width="559.3902300275104" height="598.9669942356">
  <!-- svg-source:excalidraw -->
  
  <defs>
    <style>
      @font-face {
        font-family: "Virgil";
        src: url("https://excalidraw.com/Virgil.woff2");
      }
      @font-face {
        font-family: "Cascadia";
        src: url("https://excalidraw.com/Cascadia.woff2");
      }
    </style>
  </defs>
  <g stroke-linecap="round" transform="translate(229.38556050268426 73.65311283407107) rotate(0 42.39639129964348 42.396391299643426)"><path d="M61.71 6.13 C68.12 8.77, 76.43 15.61, 80.33 22.14 C84.22 28.66, 86.02 37.41, 85.07 45.27 C84.12 53.13, 79.16 63.3, 74.64 69.29 C70.13 75.29, 64.75 79.13, 58 81.23 C51.25 83.34, 41.67 83.5, 34.16 81.93 C26.66 80.35, 18.44 77.23, 12.98 71.77 C7.52 66.32, 2.89 56.87, 1.42 49.21 C-0.05 41.56, 1.2 32.95, 4.14 25.87 C7.07 18.79, 13.04 11.04, 19.03 6.75 C25.02 2.46, 30.11 -2.15, 40.08 0.13 C50.06 2.42, 71.38 13.62, 78.87 20.43 C86.36 27.25, 85.56 40.75, 85.03 41.03 M8.19 16.59 C11.35 9.66, 18.95 3.62, 26.27 0.66 C33.6 -2.31, 44.5 -3.61, 52.14 -1.18 C59.78 1.24, 67.15 9.47, 72.09 15.22 C77.04 20.96, 80.01 25.83, 81.8 33.3 C83.6 40.76, 84.93 52.57, 82.87 60.01 C80.81 67.45, 75.51 73.81, 69.44 77.94 C63.38 82.07, 54.76 84.23, 46.49 84.78 C38.22 85.34, 26.52 85.23, 19.81 81.26 C13.11 77.3, 9.75 68.2, 6.25 60.98 C2.74 53.76, -1.4 45.47, -1.21 37.94 C-1.02 30.42, 5.96 19.43, 7.37 15.85 C8.79 12.27, 6.58 16.23, 7.28 16.46" stroke="#495057" stroke-width="4" fill="none"></path></g><g transform="translate(261.7819518023275 98.54950413371449) rotate(0 10 17.5)"><text x="10" y="25" font-family="Virgil, Segoe UI Emoji" font-size="28px" fill="#495057" text-anchor="middle" style="white-space: pre;" direction="ltr">A</text></g><g stroke-linecap="round" transform="translate(464.5974474282234 280.14421978197163) rotate(0 42.39639129964348 42.396391299643426)"><path d="M78.48 19.04 C83.22 24.59, 85.49 33.78, 85.19 41.67 C84.89 49.55, 80.67 59.96, 76.69 66.33 C72.72 72.69, 67.82 77.14, 61.33 79.85 C54.83 82.55, 45.33 83.5, 37.71 82.56 C30.09 81.62, 21.52 79.2, 15.62 74.22 C9.72 69.25, 4.42 60.19, 2.32 52.7 C0.22 45.22, 0.69 36.57, 3.01 29.29 C5.33 22.01, 10.64 13.81, 16.23 9.01 C21.81 4.22, 29.15 1.3, 36.5 0.53 C43.85 -0.24, 52.61 -5.47, 60.33 4.4 C68.04 14.27, 84.15 46.59, 82.8 59.72 C81.45 72.84, 53.38 83.29, 52.23 83.14 M75.29 15.88 C80.14 21.1, 84.59 29.75, 85.15 38.13 C85.7 46.5, 82.84 59.21, 78.61 66.13 C74.38 73.05, 66.31 76.16, 59.75 79.65 C53.2 83.15, 46.2 87.5, 39.26 87.08 C32.32 86.66, 24.04 82.26, 18.12 77.14 C12.2 72.02, 6.89 63.51, 3.74 56.36 C0.59 49.21, -2.55 41.92, -0.78 34.24 C0.98 26.56, 8.71 16.05, 14.34 10.29 C19.97 4.53, 25.92 1.03, 33.01 -0.32 C40.09 -1.68, 49.87 -0.73, 56.85 2.15 C63.82 5.04, 71.71 14.66, 74.87 17.01 C78.02 19.35, 76.21 15.21, 75.78 16.22" stroke="#495057" stroke-width="4" fill="none"></path></g><g transform="translate(495.99383872786666 305.04061108161505) rotate(0 11 17.5)"><text x="11" y="25" font-family="Virgil, Segoe UI Emoji" font-size="28px" fill="#495057" text-anchor="middle" style="white-space: pre;" direction="ltr">B</text></g><g stroke-linecap="round" transform="translate(9.999999999999545 286.56675796232247) rotate(0 42.39639129964348 42.396391299643426)"><path d="M60.26 3.41 C66.75 6.09, 72.15 14.35, 76.4 20.66 C80.65 26.97, 85.32 34.16, 85.77 41.27 C86.23 48.38, 83.28 56.8, 79.13 63.32 C74.98 69.85, 67.88 77.26, 60.87 80.44 C53.85 83.61, 44.47 83.62, 37.02 82.39 C29.57 81.15, 21.72 77.94, 16.15 73.03 C10.59 68.11, 5.97 59.97, 3.64 52.91 C1.31 45.85, 0.26 37.61, 2.18 30.65 C4.1 23.7, 9.3 16.01, 15.17 11.19 C21.03 6.36, 28.09 1.87, 37.37 1.7 C46.65 1.53, 64.56 6.92, 70.85 10.18 C77.13 13.44, 75.4 20.79, 75.08 21.25 M40.92 -2.18 C48.33 -2.36, 57.01 4.17, 63.19 8.31 C69.38 12.45, 74.34 15.89, 78.05 22.68 C81.76 29.46, 85.54 41.13, 85.46 49.04 C85.37 56.95, 82.2 64.52, 77.55 70.11 C72.89 75.7, 65.41 80.04, 57.54 82.58 C49.66 85.13, 37.75 87.46, 30.3 85.38 C22.85 83.31, 17.99 76.15, 12.84 70.12 C7.69 64.09, 1.24 56.6, -0.6 49.19 C-2.44 41.78, -0.94 32.67, 1.8 25.64 C4.55 18.61, 9.49 11.62, 15.87 7.01 C22.24 2.4, 36.15 -1.46, 40.07 -2.01 C43.99 -2.56, 39 2.46, 39.38 3.71" stroke="#495057" stroke-width="4" fill="none"></path></g><g transform="translate(40.39639129964371 311.4631492619659) rotate(0 12 17.5)"><text x="12" y="25" font-family="Virgil, Segoe UI Emoji" font-size="28px" fill="#495057" text-anchor="middle" style="white-space: pre;" direction="ltr">D</text></g><g stroke-linecap="round" transform="translate(236.79017220499054 504.1742116363132) rotate(0 42.39639129964348 42.396391299643426)"><path d="M38.27 1.4 C45.58 0.27, 57.02 1.25, 64.1 4.46 C71.19 7.66, 77.26 13.81, 80.81 20.64 C84.35 27.47, 86.06 37.84, 85.36 45.43 C84.65 53.02, 81.08 60.29, 76.55 66.18 C72.02 72.07, 65.12 78.1, 58.17 80.76 C51.21 83.42, 42.4 83.58, 34.8 82.13 C27.21 80.69, 18.14 77.16, 12.6 72.08 C7.05 67, 2.96 58.95, 1.53 51.67 C0.1 44.39, 1.2 35.61, 4.01 28.39 C6.82 21.16, 8.46 11.56, 18.42 8.31 C28.38 5.06, 52.96 5.64, 63.77 8.89 C74.59 12.13, 83.4 27.69, 83.31 27.78 M16.77 10.8 C21.85 6.32, 29.79 0.16, 37.65 -0.33 C45.5 -0.82, 56.57 3.82, 63.91 7.84 C71.25 11.87, 78 17.47, 81.69 23.8 C85.38 30.14, 87.32 38.18, 86.06 45.87 C84.8 53.55, 78.81 64.09, 74.14 69.92 C69.48 75.74, 65.17 78.69, 58.09 80.81 C51.01 82.93, 39.55 84.24, 31.68 82.65 C23.81 81.05, 16.35 76.64, 10.87 71.24 C5.4 65.84, 0.26 57.95, -1.16 50.27 C-2.58 42.6, -0.52 31.72, 2.36 25.18 C5.24 18.64, 13.27 13.57, 16.12 11.05 C18.96 8.54, 19.17 9.96, 19.45 10.1" stroke="#495057" stroke-width="4" fill="none"></path></g><g transform="translate(269.1865635046329 529.0706029359567) rotate(0 10 17.5)"><text x="10" y="25" font-family="Virgil, Segoe UI Emoji" font-size="28px" fill="#495057" text-anchor="middle" style="white-space: pre;" direction="ltr">C</text></g><g stroke-linecap="round"><g transform="translate(228.5008018005533 151.55866459266224) rotate(0 -69.46864158543485 66.51199937690984)"><path d="M-0.17 0.56 C-23.08 22.45, -113.97 109.66, -136.26 132.19 M-3.71 -1.6 C-27.14 20.49, -116.94 112.53, -138.77 134.63" stroke="#495057" stroke-width="4" fill="none"></path></g><g transform="translate(228.5008018005533 151.55866459266224) rotate(0 -69.46864158543485 66.51199937690984)"><path d="M-12.56 26.79 C-12.15 20.95, -2.54 7.15, 1.78 -3.15 M-15.36 28.9 C-10.34 20.28, -5.98 9.88, -0.13 1.22" stroke="#495057" stroke-width="4" fill="none"></path></g><g transform="translate(228.5008018005533 151.55866459266224) rotate(0 -69.46864158543485 66.51199937690984)"><path d="M-26.8 12 C-21.42 11.24, -6.93 2.51, 1.78 -3.15 M-29.59 14.11 C-19.86 10.38, -10.73 4.94, -0.13 1.22" stroke="#495057" stroke-width="4" fill="none"></path></g></g><g stroke-linecap="round"><g transform="translate(463.5745381510055 284.285210092116) rotate(0 -75.09844146793102 -63.25780995143881)"><path d="M0.56 -0.5 C-24.71 -20.81, -126.13 -101.23, -150.76 -122.01 M-2.58 -3.24 C-27.06 -24.32, -121.27 -106.08, -145.55 -126.02" stroke="#495057" stroke-width="4" fill="none"></path></g><g transform="translate(463.5745381510055 284.285210092116) rotate(0 -75.09844146793102 -63.25780995143881)"><path d="M-28.58 -13.22 C-15.81 -5.06, -10.96 -1.9, -3.15 0.91 M-26.47 -11.6 C-18.07 -8.45, -11.56 -4.16, 1.22 0.22" stroke="#495057" stroke-width="4" fill="none"></path></g><g transform="translate(463.5745381510055 284.285210092116) rotate(0 -75.09844146793102 -63.25780995143881)"><path d="M-15.77 -29.25 C-7.26 -15.74, -6.66 -7.26, -3.15 0.91 M-13.66 -27.63 C-8.73 -20.29, -5.77 -11.56, 1.22 0.22" stroke="#495057" stroke-width="4" fill="none"></path></g></g><g stroke-linecap="round"><g transform="translate(241.0904507520204 507.34114202159833) rotate(0 -74.66475619663674 -69.19310839275815)"><path d="M-0.5 -2.2 C-25.07 -25.11, -122.55 -114.45, -147.6 -136.9 M-4.21 2.78 C-28.98 -21.01, -123.98 -117.09, -148.83 -141.17" stroke="#495057" stroke-width="4" fill="none"></path></g><g transform="translate(241.0904507520204 507.34114202159833) rotate(0 -74.66475619663674 -69.19310839275815)"><path d="M-124.73 -125.95 C-127.69 -134.3, -135.7 -139.79, -147.42 -142.08 M-123.11 -126.72 C-131.77 -131.79, -138.99 -135.72, -148.11 -140" stroke="#495057" stroke-width="4" fill="none"></path></g><g transform="translate(241.0904507520204 507.34114202159833) rotate(0 -74.66475619663674 -69.19310839275815)"><path d="M-139.18 -111.38 C-137.95 -123.97, -141.72 -133.74, -147.42 -142.08 M-137.56 -112.15 C-141.24 -122.16, -143.77 -130.82, -148.11 -140" stroke="#495057" stroke-width="4" fill="none"></path></g></g><g stroke-linecap="round"><g transform="translate(464.54970174492655 362.9017646541281) rotate(0 -71.00758396322135 70.38717958953121)"><path d="M-2.2 1.86 C-26.01 24.85, -118.97 115.08, -142.33 137.47 M1.8 0.4 C-22.31 23.8, -119.62 117.46, -143.82 140.38" stroke="#495057" stroke-width="4" fill="none"></path></g><g transform="translate(464.54970174492655 362.9017646541281) rotate(0 -71.00758396322135 70.38717958953121)"><path d="M-127.88 115.44 C-136.8 123.83, -142.84 131.9, -144.73 141.37 M-128.66 111.89 C-132.31 118.7, -134.82 124.77, -142.65 141.62" stroke="#495057" stroke-width="4" fill="none"></path></g><g transform="translate(464.54970174492655 362.9017646541281) rotate(0 -71.00758396322135 70.38717958953121)"><path d="M-113.7 130.27 C-127.1 133.69, -137.68 137.02, -144.73 141.37 M-114.48 126.72 C-121.18 130.35, -126.53 133.45, -142.65 141.62" stroke="#495057" stroke-width="4" fill="none"></path></g></g><g stroke-linecap="round"><g transform="translate(447.63462978607777 325.838350243449) rotate(0 -170.19263415814203 2.076685300167725)"><path d="M1.86 1.37 C-54.61 2.49, -282.21 4.05, -339.28 4.51 M-0.58 -0.35 C-57.49 0.13, -286.49 0.32, -342.24 0.24" stroke="#495057" stroke-width="4" fill="none"></path></g></g><g stroke-linecap="round"><g transform="translate(282.59354191071316 486.65464093844184) rotate(0 -2.674369070237617 -155.53392749161787)"><path d="M1.37 -1.34 C0.87 -54.18, -4.06 -263.19, -5.22 -315.17 M-1.33 4.1 C-1.89 -48.65, -5.8 -260.53, -6.72 -312.95" stroke="#495057" stroke-width="4" fill="none"></path></g></g><g transform="translate(172.82923910564932 10) rotate(0 101.5 22.5)"><text x="0" y="32" font-family="Virgil, Segoe UI Emoji" font-size="36px" fill="#495057" text-anchor="start" style="white-space: pre;" direction="ltr">DIRECTED</text></g></svg>