<svg version="1.1" xmlns="http://www.w3.org/2000/svg" viewBox="0 0 520.8757934570312 317.3457275992447" width="520.8757934570312" height="317.3457275992447">
  <!-- svg-source:excalidraw -->
  
  <defs>
    <style>
      @font-face {
        font-family: "Virgil";
        src: url("https://excalidraw.com/Virgil.woff2");
      }
      @font-face {
        font-family: "Cascadia";
        src: url("https://excalidraw.com/Cascadia.woff2");
      }
    </style>
  </defs>
  <g stroke-linecap="round" transform="translate(10 83.11733988959412) rotate(0 29.0496826171875 29.0496826171875)"><path d="M26.83 0.02 C32.65 -0.82, 40.33 2.55, 45.34 6.27 C50.36 10, 55.37 16.66, 56.92 22.39 C58.47 28.12, 57.11 35.23, 54.64 40.67 C52.16 46.11, 47.71 52.23, 42.05 55.02 C36.38 57.81, 26.88 59.06, 20.66 57.41 C14.43 55.76, 8.03 50.15, 4.7 45.1 C1.38 40.04, 0.2 33.3, 0.71 27.08 C1.23 20.86, 2.34 12.09, 7.81 7.75 C13.28 3.42, 28.03 1.86, 33.51 1.06 C38.98 0.26, 40.62 2.44, 40.65 2.96 M38.26 2.09 C43.82 3.64, 51.29 10.28, 54.39 15.31 C57.48 20.33, 58.13 26.13, 56.85 32.23 C55.58 38.32, 51.26 47.73, 46.73 51.9 C42.2 56.07, 35.63 57.28, 29.67 57.24 C23.71 57.2, 15.8 55.64, 10.98 51.67 C6.15 47.69, 1.91 39.53, 0.72 33.4 C-0.48 27.27, 0.93 20.32, 3.81 14.9 C6.68 9.48, 12.33 3.06, 17.97 0.9 C23.61 -1.26, 34.16 1.87, 37.63 1.95 C41.1 2.02, 38.65 1.06, 38.79 1.35" stroke="#000000" stroke-width="1" fill="none"></path></g><g transform="translate(31.5496826171875 99.66702250678162) rotate(0 7.5 12.5)"><text x="7.5" y="18" font-family="Virgil, Segoe UI Emoji" font-size="20px" fill="#000000" text-anchor="middle" style="white-space: pre;" direction="ltr">A</text></g><g stroke-linecap="round" transform="translate(352.62729414231126 249.2463623648697) rotate(0 29.0496826171875 29.0496826171875)"><path d="M22.65 0.41 C28.42 -1.2, 36.88 1.11, 42.38 4.01 C47.88 6.9, 53.21 12.12, 55.65 17.78 C58.08 23.43, 58.67 32.09, 56.97 37.95 C55.28 43.81, 50.76 49.67, 45.48 52.94 C40.19 56.22, 31.35 58.33, 25.24 57.6 C19.13 56.87, 13.17 52.97, 8.8 48.54 C4.44 44.1, -0.38 37.29, -0.93 30.99 C-1.47 24.69, 0.93 16.02, 5.55 10.75 C10.17 5.47, 22.72 1.05, 26.79 -0.66 C30.86 -2.37, 30.08 -0.14, 29.98 0.49 M36.34 0.26 C41.87 1.16, 48.33 6.17, 52.09 11.59 C55.85 17, 59.47 26.37, 58.92 32.74 C58.36 39.11, 53.5 45.41, 48.77 49.81 C44.04 54.2, 36.49 58.51, 30.54 59.12 C24.58 59.73, 17.98 57.3, 13.03 53.45 C8.08 49.6, 2.69 42.16, 0.85 36.01 C-0.98 29.86, -0.55 22.22, 2.02 16.54 C4.59 10.87, 10.73 4.52, 16.26 1.95 C21.79 -0.61, 31.61 1.08, 35.19 1.16 C38.77 1.23, 37.54 1.72, 37.73 2.41" stroke="#000000" stroke-width="1" fill="none"></path></g><g transform="translate(372.67697675949876 265.7960449820572) rotate(0 9 12.5)"><text x="9" y="18" font-family="Virgil, Segoe UI Emoji" font-size="20px" fill="#000000" text-anchor="middle" style="white-space: pre;" direction="ltr">D</text></g><g stroke-linecap="round" transform="translate(452.77642822265625 87.70893249797052) rotate(0 29.0496826171875 29.0496826171875)"><path d="M31.78 0.25 C37.64 0.53, 45.8 4.8, 50.1 9.14 C54.39 13.48, 57.15 20.02, 57.55 26.29 C57.95 32.56, 56.08 41.78, 52.51 46.75 C48.94 51.73, 42.04 54.78, 36.13 56.16 C30.23 57.55, 22.79 57.5, 17.08 55.06 C11.36 52.62, 4.64 47.22, 1.83 41.52 C-0.97 35.82, -1.5 26.99, 0.24 20.85 C1.99 14.7, 6.55 7.95, 12.33 4.66 C18.11 1.36, 30.58 1.46, 34.92 1.1 C39.27 0.73, 38.54 2.18, 38.41 2.49 M23.57 -0.1 C29.4 -2.17, 36.79 -1.09, 42.33 1.94 C47.88 4.96, 54.33 12.2, 56.85 18.07 C59.37 23.95, 59.51 31.42, 57.44 37.18 C55.36 42.94, 49.73 49.25, 44.39 52.64 C39.05 56.02, 31.61 58.3, 25.4 57.48 C19.19 56.66, 11.33 51.94, 7.14 47.72 C2.94 43.51, 0.33 38.08, 0.24 32.18 C0.16 26.27, 2.68 17.32, 6.6 12.3 C10.53 7.27, 21.41 3.96, 23.81 2.03 C26.2 0.1, 21.13 0.52, 20.98 0.72" stroke="#000000" stroke-width="1" fill="none"></path></g><g transform="translate(474.32611083984375 104.25861511515802) rotate(0 7.5 12.5)"><text x="7.5" y="18" font-family="Virgil, Segoe UI Emoji" font-size="20px" fill="#000000" text-anchor="middle" style="white-space: pre;" direction="ltr">C</text></g><g stroke-linecap="round" transform="translate(246.0887827879095 86.48641947943787) rotate(0 29.0496826171875 29.0496826171875)"><path d="M35.14 0.43 C41.06 1.38, 49.48 6.04, 53.14 11.11 C56.8 16.17, 57.6 24.68, 57.1 30.82 C56.59 36.95, 54.13 43.53, 50.11 47.91 C46.09 52.29, 39.22 56.19, 32.99 57.1 C26.76 58.01, 18.11 56.57, 12.74 53.35 C7.37 50.13, 2.42 43.59, 0.76 37.78 C-0.9 31.97, 0.18 24.28, 2.77 18.51 C5.36 12.73, 10.19 5.95, 16.3 3.14 C22.41 0.33, 34.93 1.27, 39.42 1.63 C43.91 1.99, 43.22 4.85, 43.26 5.28 M32.33 0.68 C38.42 0.56, 45.39 3.71, 49.56 7.99 C53.73 12.28, 56.88 20.21, 57.34 26.39 C57.8 32.57, 56.02 39.9, 52.31 45.06 C48.6 50.22, 40.82 55.5, 35.1 57.35 C29.38 59.2, 23.32 58.63, 18 56.18 C12.69 53.73, 5.83 48.7, 3.21 42.65 C0.59 36.6, 0.83 26.14, 2.28 19.88 C3.73 13.61, 7.05 8.15, 11.9 5.05 C16.75 1.96, 28.04 1.91, 31.37 1.3 C34.7 0.68, 32.09 1.12, 31.87 1.37" stroke="#000000" stroke-width="1" fill="none"></path></g><g transform="translate(266.638465405097 103.03610209662537) rotate(0 8.5 12.5)"><text x="8.5" y="18" font-family="Virgil, Segoe UI Emoji" font-size="20px" fill="#000000" text-anchor="middle" style="white-space: pre;" direction="ltr">B</text></g><g transform="translate(17.74530029296875 10) rotate(0 54 22.5)"><text x="0" y="32" font-family="Virgil, Segoe UI Emoji" font-size="36px" fill="#000000" text-anchor="start" style="white-space: pre;" direction="ltr">LOOP:</text></g><g stroke-linecap="round"><g transform="translate(76.74797206525602 112.38708583376456) rotate(0 81.76400579479304 0.8932593475366701)"><path d="M0.62 0.01 C28 0.62, 136.96 2.54, 164.04 2.82 M-0.51 -1.03 C26.71 -0.66, 135.31 0.6, 162.96 1.26" stroke="#000000" stroke-width="1" fill="none"></path></g></g><g stroke-linecap="round"><g transform="translate(459.04567429799386 148.28489257100847) rotate(0 -27.455294637819236 47.63385546488155)"><path d="M0.2 -0.69 C-8.83 15.25, -45.23 78.89, -54.05 95 M-1.16 1.57 C-10.38 17.66, -46.47 80.02, -55.11 95.95" stroke="#000000" stroke-width="1" fill="none"></path></g></g><g stroke-linecap="round"><g transform="translate(312.5036772227361 114.69033622866203) rotate(0 63.053271078232285 -0.4001135560836815)"><path d="M-1.04 1.07 C20.27 0.75, 105.8 -1.4, 127.15 -1.87 M0.62 0.59 C21.84 0.37, 105.3 -0.63, 126.23 -0.89" stroke="#000000" stroke-width="1" fill="none"></path></g></g><g stroke-linecap="round"><g transform="translate(69.35002679406875 137.63244965545465) rotate(0 137.34193959780765 61.86956803365226)"><path d="M0.44 -0.47 C45.82 20.39, 227.41 103.6, 273.2 124.56 M-0.79 -1.76 C44.89 19.26, 229.5 104.15, 275.47 125.5" stroke="#000000" stroke-width="1" fill="none"></path></g></g></svg>