<svg version="1.1" xmlns="http://www.w3.org/2000/svg" viewBox="0 0 619.4546028896168 482.5890318559975" width="619.4546028896168" height="482.5890318559975">
  <!-- svg-source:excalidraw -->
  
  <defs>
    <style>
      @font-face {
        font-family: "Virgil";
        src: url("https://excalidraw.com/Virgil.woff2");
      }
      @font-face {
        font-family: "Cascadia";
        src: url("https://excalidraw.com/Cascadia.woff2");
      }
    </style>
  </defs>
  <g stroke-linecap="round" transform="translate(10 279.8060860124924) rotate(0 29.0496826171875 29.0496826171875)"><path d="M29.89 0.63 C35.63 0.43, 43.98 3.38, 48.69 7.44 C53.39 11.5, 57.16 18.6, 58.12 24.97 C59.07 31.33, 57.99 40.45, 54.44 45.63 C50.88 50.8, 42.85 54.41, 36.8 56.03 C30.75 57.65, 23.67 57.67, 18.13 55.34 C12.59 53.01, 6.59 47.63, 3.56 42.05 C0.53 36.48, -1.22 28.08, -0.04 21.9 C1.13 15.73, 5.17 8.68, 10.59 5.02 C16.01 1.35, 28.56 0.67, 32.49 -0.08 C36.42 -0.84, 34.22 -0.1, 34.17 0.48 M27.48 -0.41 C33.33 -1.03, 41.84 2.45, 46.69 6.35 C51.54 10.24, 55.36 17.29, 56.56 22.97 C57.76 28.66, 56.21 35.04, 53.87 40.43 C51.53 45.82, 47.96 52.71, 42.52 55.29 C37.08 57.87, 27.54 57.42, 21.25 55.92 C14.95 54.42, 8.04 51.42, 4.75 46.3 C1.46 41.18, 1.06 31.68, 1.52 25.21 C1.98 18.75, 3.39 11.93, 7.49 7.52 C11.6 3.12, 22.82 -0.2, 26.14 -1.23 C29.47 -2.26, 27.41 0.76, 27.43 1.35" stroke="#000000" stroke-width="1" fill="none"></path></g><g transform="translate(31.5496826171875 296.3557686296799) rotate(0 7.5 12.5)"><text x="7.5" y="18" font-family="Virgil, Segoe UI Emoji" font-size="20px" fill="#000000" text-anchor="middle" style="white-space: pre;" direction="ltr">A</text></g><g stroke-linecap="round" transform="translate(302.7272487773296 414.4896666216225) rotate(0 29.0496826171875 29.0496826171875)"><path d="M34.89 0.32 C40.89 1, 48.09 5.57, 52.12 10.65 C56.14 15.73, 59.42 24.64, 59.05 30.8 C58.67 36.97, 54.11 43.22, 49.86 47.63 C45.61 52.05, 39.49 56.33, 33.53 57.3 C27.57 58.28, 19.57 56.77, 14.09 53.46 C8.62 50.14, 2.85 43.43, 0.7 37.41 C-1.46 31.4, -1.25 23.08, 1.19 17.37 C3.63 11.67, 8.58 5.67, 15.33 3.17 C22.09 0.67, 36.32 1.63, 41.71 2.4 C47.1 3.17, 47.88 7.15, 47.67 7.78 M26.28 1.18 C31.88 0.37, 39.39 2.85, 44.24 5.89 C49.1 8.94, 53.26 13.71, 55.42 19.43 C57.58 25.15, 59.41 34.47, 57.2 40.2 C55 45.93, 48.04 50.81, 42.2 53.8 C36.36 56.79, 27.99 59.53, 22.16 58.14 C16.34 56.75, 11.13 50.71, 7.25 45.48 C3.37 40.24, -1.13 32.98, -1.14 26.73 C-1.15 20.47, 2.64 12.24, 7.18 7.93 C11.73 3.63, 23.18 2.2, 26.13 0.9 C29.08 -0.39, 24.82 -0.31, 24.89 0.15" stroke="#000000" stroke-width="1" fill="none"></path></g><g transform="translate(322.7769313945171 431.03934923881025) rotate(0 9 12.5)"><text x="9" y="18" font-family="Virgil, Segoe UI Emoji" font-size="20px" fill="#000000" text-anchor="middle" style="white-space: pre;" direction="ltr">D</text></g><g stroke-linecap="round" transform="translate(413.048149853042 165.03430167979275) rotate(0 29.049682617187557 29.0496826171875)"><path d="M37.82 0.85 C43.76 2.42, 51.19 8.94, 54.39 14.11 C57.59 19.27, 57.9 25.9, 57.02 31.85 C56.15 37.8, 53.52 45.5, 49.16 49.82 C44.8 54.14, 37.28 57.49, 30.88 57.77 C24.48 58.06, 15.95 55.36, 10.78 51.51 C5.61 47.65, 1.12 40.65, -0.15 34.65 C-1.41 28.66, 0.25 21.04, 3.2 15.55 C6.15 10.06, 11.4 3.88, 17.54 1.7 C23.69 -0.48, 36 2.02, 40.07 2.46 C44.14 2.9, 42.19 3.86, 41.96 4.34 M23.58 1.63 C28.98 -0.07, 36.62 -0.04, 42.33 2.88 C48.04 5.79, 55.5 13.25, 57.82 19.11 C60.13 24.96, 58.69 32.04, 56.23 38.03 C53.76 44.03, 48.21 51.99, 43.04 55.08 C37.88 58.17, 31.47 57.94, 25.21 56.55 C18.95 55.17, 9.8 51.59, 5.5 46.76 C1.19 41.92, -0.95 33.52, -0.61 27.55 C-0.26 21.57, 3.53 15.55, 7.55 10.92 C11.57 6.29, 20.62 1.32, 23.51 -0.24 C26.41 -1.8, 24.67 0.84, 24.95 1.55" stroke="#000000" stroke-width="1" fill="none"></path></g><g transform="translate(434.5978324702295 181.58398429698025) rotate(0 7.500000000000057 12.5)"><text x="7.5" y="18" font-family="Virgil, Segoe UI Emoji" font-size="20px" fill="#000000" text-anchor="middle" style="white-space: pre;" direction="ltr">C</text></g><g stroke-linecap="round" transform="translate(150.39839505033854 119.89607816398177) rotate(0 29.0496826171875 29.0496826171875)"><path d="M25.86 1.15 C31.47 -0.12, 38.31 0.53, 43.49 3.59 C48.68 6.64, 54.82 13.48, 56.96 19.47 C59.11 25.46, 58.86 33.8, 56.37 39.54 C53.88 45.28, 47.71 51.08, 42.02 53.92 C36.34 56.76, 28.2 57.78, 22.24 56.59 C16.27 55.39, 9.98 51.58, 6.25 46.74 C2.51 41.9, -0.37 33.67, -0.17 27.55 C0.03 21.43, 2.52 14.5, 7.44 10.01 C12.35 5.51, 24.95 2, 29.34 0.59 C33.72 -0.83, 33.78 1.02, 33.74 1.5 M36.75 0.36 C42.82 1.63, 51.67 8.3, 55.17 13.59 C58.66 18.88, 58.93 25.78, 57.74 32.1 C56.55 38.42, 52.42 47.36, 48.01 51.51 C43.61 55.66, 37.67 57.09, 31.31 57.01 C24.96 56.93, 15.09 54.93, 9.87 51.03 C4.66 47.14, 0.96 39.48, 0 33.63 C-0.96 27.79, 1.17 21.34, 4.1 15.97 C7.04 10.6, 11.84 3.74, 17.62 1.41 C23.41 -0.91, 35.35 1.8, 38.82 2.03 C42.29 2.25, 38.64 2.62, 38.44 2.76" stroke="#000000" stroke-width="1" fill="none"></path></g><g transform="translate(170.94807766752604 136.44576078116927) rotate(0 8.5 12.5)"><text x="8.5" y="18" font-family="Virgil, Segoe UI Emoji" font-size="20px" fill="#000000" text-anchor="middle" style="white-space: pre;" direction="ltr">B</text></g><g transform="translate(11.713089893574306 10) rotate(0 179.5 22.5)"><text x="0" y="32" font-family="Virgil, Segoe UI Emoji" font-size="36px" fill="#000000" text-anchor="start" style="white-space: pre;" direction="ltr">MUILTIPLE PATHS:</text></g><g stroke-linecap="round"><g transform="translate(64.15483576756856 280.28465218897054) rotate(0 46.35644508755274 -53.703710124950135)"><path d="M0.3 -0.51 C15.93 -18.01, 78.51 -87.52, 93.72 -105.31 M-1.01 -1.83 C14.58 -19.61, 77.56 -89.46, 93.38 -106.89" stroke="#000000" stroke-width="1" fill="none"></path></g></g><g stroke-linecap="round"><g transform="translate(423.4717100855279 228.2295846602865) rotate(0 -35.2788028132959 89.70900471150577)"><path d="M-0.51 1.16 C-12.38 30.72, -59.4 148.04, -71.57 177.7 M1.42 0.72 C-10.49 30.37, -59.89 149.32, -71.98 178.7" stroke="#000000" stroke-width="1" fill="none"></path></g></g><g stroke-linecap="round"><g transform="translate(216.43985258543216 154.2827039608768) rotate(0 92.97266066138229 15.281219140632516)"><path d="M1.16 1.02 C31.68 5.94, 152.85 24.28, 183.47 28.99 M0.3 0.52 C31.17 5.6, 154.97 25.08, 185.64 30.05" stroke="#000000" stroke-width="1" fill="none"></path></g></g><g stroke-linecap="round"><g transform="translate(188.34291496186552 188.08877260971144) rotate(0 62.26665910872123 108.22216245115806)"><path d="M-1.03 -0.92 C19.71 34.93, 104.46 179.92, 125.56 216.14 M0.64 1.21 C21.14 37.73, 104.08 181.31, 124.81 217.37" stroke="#000000" stroke-width="1" fill="none"></path></g></g><g stroke-linecap="round" transform="translate(551.3552376552418 341.89509069838357) rotate(0 29.0496826171875 29.0496826171875)"><path d="M33.4 0.37 C39.35 0.63, 46.17 3.96, 50.4 8.37 C54.63 12.78, 58.48 20.41, 58.77 26.84 C59.05 33.27, 56.1 42, 52.13 46.95 C48.17 51.9, 41.09 55.35, 34.98 56.54 C28.88 57.72, 20.99 56.67, 15.5 54.05 C10.01 51.44, 4.46 46.44, 2.03 40.85 C-0.4 35.26, -1.03 26.4, 0.9 20.52 C2.82 14.64, 7.41 8.64, 13.57 5.57 C19.73 2.5, 33.04 2.51, 37.86 2.12 C42.68 1.72, 42.49 2.88, 42.46 3.23 M39.33 1.54 C45.09 3.27, 50.54 9.22, 53.82 14.53 C57.1 19.85, 60.01 27.28, 59.03 33.42 C58.04 39.57, 53.14 47.43, 47.91 51.39 C42.68 55.36, 33.77 57.25, 27.64 57.22 C21.52 57.19, 15.62 54.96, 11.15 51.22 C6.69 47.48, 1.82 40.82, 0.85 34.79 C-0.12 28.76, 2.28 20.65, 5.34 15.06 C8.4 9.46, 13.65 3.65, 19.19 1.22 C24.72 -1.2, 35.04 0.2, 38.55 0.51 C42.06 0.81, 40.06 2.14, 40.24 3.03" stroke="#000000" stroke-width="1" fill="none"></path></g><g transform="translate(572.9049202724293 358.44477331557107) rotate(0 7.5 12.5)"><text x="7.5" y="18" font-family="Virgil, Segoe UI Emoji" font-size="20px" fill="#000000" text-anchor="middle" style="white-space: pre;" direction="ltr">E</text></g><g stroke-linecap="round"><g transform="translate(467.53361237877607 221.99493503039025) rotate(0 43.800925293046475 56.43535147244597)"><path d="M-0.75 -0.54 C14.1 18.11, 73.58 93.56, 88.36 112.39 M1.05 1.8 C15.78 20.52, 72.32 94.83, 87.2 113.41" stroke="#000000" stroke-width="1" fill="none"></path></g></g><g stroke-linecap="round"><g transform="translate(70.75606937636383 335.6617117883857) rotate(0 108.64888300829745 52.146044465397324)"><path d="M-0.42 -0.41 C35.77 16.93, 181.54 86.99, 217.72 104.73 M1.56 -1.67 C37.57 15.76, 180.63 88.35, 216.89 105.96" stroke="#000000" stroke-width="1" fill="none"></path></g></g><g stroke-linecap="round"><g transform="translate(80.43663450493432 299.85877540997774) rotate(0 161.35753211879376 -44.479136589458335)"><path d="M-0.97 -0.93 C52.91 -15.78, 269.57 -73.71, 323.68 -88.46 M0.73 1.19 C54.39 -14.05, 268.94 -75.26, 322.62 -90.15" stroke="#000000" stroke-width="1" fill="none"></path></g></g><g stroke-linecap="round"><g transform="translate(373.2782238835123 434.25420081268567) rotate(0 85.95215723156855 -23.519200418564026)"><path d="M0.14 -0.88 C29.12 -8.92, 144.4 -40.75, 173.16 -48.31 M-1.25 1.27 C27.71 -6.65, 143.73 -39.07, 172.63 -47.28" stroke="#000000" stroke-width="1" fill="none"></path></g></g></svg>