<svg version="1.1" xmlns="http://www.w3.org/2000/svg" viewBox="0 0 766.7374857938673 432.4271441959402" width="766.7374857938673" height="432.4271441959402">
  <!-- svg-source:excalidraw -->
  
  <defs>
    <style>
      @font-face {
        font-family: "Virgil";
        src: url("https://excalidraw.com/Virgil.woff2");
      }
      @font-face {
        font-family: "Cascadia";
        src: url("https://excalidraw.com/Cascadia.woff2");
      }
    </style>
  </defs>
  <g stroke-linecap="round" transform="translate(358.2983830220312 198.72527776260677) rotate(0 29.0496826171875 29.0496826171875)"><path d="M17.67 3.26 C23.09 0.74, 31.27 0.61, 37.27 2.08 C43.27 3.55, 50.18 7.15, 53.65 12.06 C57.12 16.97, 58.72 25.18, 58.1 31.55 C57.47 37.91, 54.37 45.91, 49.89 50.25 C45.4 54.59, 37.67 57.18, 31.18 57.58 C24.69 57.98, 16 56.22, 10.96 52.67 C5.92 49.12, 2.23 42.44, 0.94 36.26 C-0.35 30.08, 0.07 21.28, 3.22 15.57 C6.38 9.86, 16.84 4.37, 19.87 2 C22.91 -0.37, 21.2 0.93, 21.46 1.33 M37.93 2.79 C43.8 4.05, 50.27 8.51, 53.6 13.45 C56.93 18.39, 58.94 25.96, 57.91 32.41 C56.87 38.86, 52.27 47.8, 47.39 52.16 C42.51 56.52, 34.81 58.51, 28.64 58.56 C22.48 58.6, 15.23 56.18, 10.4 52.41 C5.58 48.65, 0.78 42.32, -0.29 35.96 C-1.37 29.59, 0.6 19.69, 3.94 14.24 C7.29 8.78, 14.27 5.38, 19.77 3.24 C25.26 1.11, 33.89 1.66, 36.91 1.42 C39.94 1.17, 37.92 1.42, 37.91 1.77" stroke="#000000" stroke-width="1" fill="none"></path></g><g transform="translate(379.8480656392187 215.27496037979427) rotate(0 7.5 12.5)"><text x="7.5" y="18" font-family="Virgil, Segoe UI Emoji" font-size="20px" fill="#000000" text-anchor="middle" style="white-space: pre;" direction="ltr">A</text></g><g stroke-linecap="round" transform="translate(180.75572252735788 353.36104058699243) rotate(0 29.0496826171875 29.0496826171875)"><path d="M25.58 1.11 C31.43 -0.26, 40.08 0.67, 45.32 3.8 C50.56 6.92, 55.15 13.73, 57.03 19.86 C58.9 26, 59 34.84, 56.58 40.61 C54.16 46.38, 48.33 51.66, 42.5 54.49 C36.68 57.32, 27.71 58.86, 21.62 57.59 C15.53 56.32, 9.51 51.99, 5.94 46.87 C2.38 41.76, -0.15 33.13, 0.23 26.92 C0.62 20.7, 3.85 14.08, 8.24 9.58 C12.63 5.07, 23.1 1.37, 26.58 -0.12 C30.06 -1.61, 28.95 0.23, 29.14 0.63 M39.8 1.76 C45.49 3.27, 52.07 8.78, 54.85 14.58 C57.64 20.38, 58.04 30.23, 56.51 36.54 C54.98 42.85, 50.53 48.76, 45.67 52.45 C40.81 56.14, 33.54 58.81, 27.37 58.68 C21.21 58.55, 13.12 56.11, 8.68 51.67 C4.23 47.22, 1.19 38.18, 0.72 32.03 C0.25 25.89, 2.84 19.92, 5.85 14.8 C8.87 9.69, 13.16 3.48, 18.83 1.33 C24.49 -0.82, 36.44 1.77, 39.86 1.88 C43.27 1.98, 39.38 1.44, 39.33 1.96" stroke="#000000" stroke-width="1" fill="none"></path></g><g transform="translate(195.30540514454538 369.91072320417993) rotate(0 14.5 12.5)"><text x="14.5" y="18" font-family="Virgil, Segoe UI Emoji" font-size="20px" fill="#000000" text-anchor="middle" style="white-space: pre;" direction="ltr">P3</text></g><g stroke-linecap="round" transform="translate(22.72118259304432 195.49467318434563) rotate(0 29.0496826171875 29.0496826171875)"><path d="M41.18 1.55 C46.77 3.33, 52.48 9.72, 55.3 15.49 C58.11 21.25, 59.53 30.06, 58.07 36.15 C56.6 42.24, 51.81 48.34, 46.51 52.03 C41.21 55.72, 32.51 58.55, 26.27 58.28 C20.03 58, 13.38 54.84, 9.06 50.4 C4.74 45.95, 0.99 37.81, 0.36 31.62 C-0.26 25.43, 1.93 18.37, 5.31 13.26 C8.7 8.15, 13.97 2.4, 20.68 0.95 C27.4 -0.5, 40.99 3.57, 45.6 4.56 C50.21 5.54, 48.66 6.49, 48.37 6.86 M41.39 1.8 C46.78 4.24, 51.99 12.23, 54.41 18.1 C56.83 23.96, 57.46 31.09, 55.92 36.97 C54.38 42.86, 50.21 49.73, 45.17 53.41 C40.14 57.09, 31.73 59.86, 25.7 59.07 C19.67 58.28, 13.03 53.02, 9 48.65 C4.97 44.28, 2.37 38.9, 1.52 32.85 C0.67 26.81, 0.6 17.72, 3.9 12.37 C7.2 7.02, 15.18 2.48, 21.33 0.74 C27.48 -0.99, 37.43 1.54, 40.81 1.97 C44.2 2.41, 41.87 2.69, 41.63 3.35" stroke="#000000" stroke-width="1" fill="none"></path></g><g transform="translate(37.27086521023182 212.04435580153313) rotate(0 14.5 12.5)"><text x="14.5" y="18" font-family="Virgil, Segoe UI Emoji" font-size="20px" fill="#000000" text-anchor="middle" style="white-space: pre;" direction="ltr">P2</text></g><g stroke-linecap="round" transform="translate(698.6381205594923 199.32759058593592) rotate(0 29.0496826171875 29.0496826171875)"><path d="M41.82 2.13 C47.38 4.54, 53.75 11.53, 56.33 17.25 C58.92 22.97, 59.29 30.44, 57.33 36.44 C55.37 42.45, 49.75 49.64, 44.58 53.29 C39.41 56.94, 32.31 59.09, 26.29 58.34 C20.27 57.59, 12.76 53.24, 8.45 48.78 C4.15 44.32, 1.03 37.76, 0.48 31.61 C-0.06 25.46, 1.46 17.01, 5.19 11.9 C8.91 6.78, 15.9 2.09, 22.85 0.93 C29.8 -0.23, 42.26 3.53, 46.89 4.94 C51.52 6.35, 50.86 8.92, 50.61 9.4 M24.39 1.62 C29.99 0.72, 38.21 1.83, 43.51 5.06 C48.81 8.28, 54.27 14.95, 56.18 20.99 C58.09 27.03, 57.2 35.83, 54.98 41.31 C52.75 46.79, 47.99 50.98, 42.84 53.86 C37.7 56.74, 30.46 59.81, 24.09 58.6 C17.73 57.39, 8.68 51.8, 4.65 46.61 C0.61 41.41, -0.54 33.77, -0.11 27.45 C0.32 21.12, 2.89 13.16, 7.23 8.65 C11.57 4.14, 23.02 1.58, 25.94 0.37 C28.86 -0.84, 24.68 0.69, 24.75 1.39" stroke="#000000" stroke-width="1" fill="none"></path></g><g transform="translate(719.1878031766798 215.87727320312342) rotate(0 8.5 12.5)"><text x="8.5" y="18" font-family="Virgil, Segoe UI Emoji" font-size="20px" fill="#000000" text-anchor="middle" style="white-space: pre;" direction="ltr">B</text></g><g transform="translate(10 10) rotate(0 90.5 22.5)"><text x="0" y="32" font-family="Virgil, Segoe UI Emoji" font-size="36px" fill="#000000" text-anchor="start" style="white-space: pre;" direction="ltr">PARENTS:</text></g><g stroke-linecap="round"><g transform="translate(429.9586171832714 228.7209078074593) rotate(0 128.2537470276812 -0.8288318738286762)"><path d="M0.48 -1.1 C43.35 -1.71, 214.31 -2.52, 257.23 -2.59 M-0.72 0.93 C42 0.96, 213.32 -1.35, 256.4 -1.52" stroke="#000000" stroke-width="1" fill="none"></path></g><g transform="translate(429.9586171832714 228.7209078074593) rotate(0 128.2537470276812 -0.8288318738286762)"><path d="M226.46 9.36 C235.18 7.33, 245.46 3.16, 255.47 -3.21 M228.49 8.44 C237.8 5.86, 246.24 1.86, 257.38 -1.49" stroke="#000000" stroke-width="1" fill="none"></path></g><g transform="translate(429.9586171832714 228.7209078074593) rotate(0 128.2537470276812 -0.8288318738286762)"><path d="M226.28 -11.16 C235.24 -7.01, 245.57 -4.99, 255.47 -3.21 M228.31 -12.09 C237.7 -8.01, 246.2 -5.35, 257.38 -1.49" stroke="#000000" stroke-width="1" fill="none"></path></g></g><g stroke-linecap="round" transform="translate(540.2703154626304 364.3277789615652) rotate(0 29.0496826171875 29.0496826171875)"><path d="M33.78 0.47 C39.83 1.19, 47.37 5.41, 51.32 10.14 C55.28 14.88, 57.41 22.74, 57.53 28.89 C57.65 35.04, 55.88 42.08, 52.04 47.02 C48.19 51.96, 40.61 57.19, 34.44 58.54 C28.27 59.89, 20.58 58.17, 15.04 55.13 C9.51 52.08, 3.53 46.05, 1.25 40.28 C-1.03 34.51, -0.74 26.57, 1.37 20.51 C3.48 14.45, 7.58 7.13, 13.91 3.92 C20.25 0.71, 34.42 0.94, 39.38 1.27 C44.35 1.61, 44.01 5.34, 43.7 5.95 M24.4 1.01 C29.86 -0.13, 36.5 2.27, 41.98 4.96 C47.47 7.65, 54.89 11.61, 57.31 17.15 C59.73 22.69, 58.74 32.15, 56.51 38.2 C54.27 44.24, 49.33 50.04, 43.9 53.4 C38.48 56.77, 30.05 59.35, 23.97 58.38 C17.88 57.41, 11.27 52.26, 7.38 47.6 C3.48 42.94, 0.51 36.48, 0.58 30.42 C0.66 24.36, 4.03 16.21, 7.81 11.23 C11.59 6.26, 20.42 2.48, 23.25 0.56 C26.08 -1.35, 24.51 -0.97, 24.79 -0.26" stroke="#000000" stroke-width="1" fill="none"></path></g><g transform="translate(561.8199980798179 380.8774615787527) rotate(0 7.5 12.5)"><text x="7.5" y="18" font-family="Virgil, Segoe UI Emoji" font-size="20px" fill="#000000" text-anchor="middle" style="white-space: pre;" direction="ltr">C</text></g><g stroke-linecap="round"><g transform="translate(409.9191914408807 265.14916086404946) rotate(0 62.331000603662005 50.49967058010611)"><path d="M-0.77 -1.08 C20.28 15.89, 104.35 83.89, 125.43 100.93 M1.03 0.97 C21.96 18.16, 103.65 85.21, 124.3 102.08" stroke="#000000" stroke-width="1" fill="none"></path></g></g><g stroke-linecap="round"><g transform="translate(601.5115150856752 365.0529561774497) rotate(0 50.6051966213264 -51.333454647025974)"><path d="M0.75 -0.13 C17.23 -17.19, 82.54 -85.51, 99.19 -102.54 M-0.32 -1.24 C16.53 -18.16, 84.76 -84.76, 101.53 -101.44" stroke="#000000" stroke-width="1" fill="none"></path></g></g><g stroke-linecap="round"><g transform="translate(86.43438835812958 221.01908878398012) rotate(0 127.81454704740474 -0.3070075797880918)"><path d="M0.55 -0.41 C43.1 -0.06, 213.4 0.99, 256.25 1.06 M-0.62 -1.68 C41.66 -1.62, 212.09 -1.36, 255.1 -0.93" stroke="#000000" stroke-width="1" fill="none"></path></g><g transform="translate(86.43438835812958 221.01908878398012) rotate(0 127.81454704740474 -0.3070075797880918)"><path d="M226.17 8.55 C238.05 6.98, 246.98 1.53, 253.87 -2.87 M227.73 8.58 C235.76 6.45, 246.57 1.96, 255.74 0.02" stroke="#000000" stroke-width="1" fill="none"></path></g><g transform="translate(86.43438835812958 221.01908878398012) rotate(0 127.81454704740474 -0.3070075797880918)"><path d="M226.28 -11.97 C237.94 -5.77, 246.83 -3.46, 253.87 -2.87 M227.83 -11.94 C235.71 -7.03, 246.48 -4.49, 255.74 0.02" stroke="#000000" stroke-width="1" fill="none"></path></g></g><g stroke-linecap="round"><g transform="translate(238.49277266181548 361.2169262635023) rotate(0 59.969560167718214 -50.31895395105994)"><path d="M0.38 0.54 C20.38 -16.49, 100.65 -84.32, 120.82 -101.18 M-0.88 -0.22 C18.89 -16.52, 99.58 -82.55, 119.86 -99.63" stroke="#000000" stroke-width="1" fill="none"></path></g><g transform="translate(238.49277266181548 361.2169262635023) rotate(0 59.969560167718214 -50.31895395105994)"><path d="M105.6 -73.75 C110.15 -82.5, 116.7 -94.87, 119.18 -100.06 M104.27 -74.65 C110.24 -81.51, 115.1 -91.15, 119.82 -99.96" stroke="#000000" stroke-width="1" fill="none"></path></g><g transform="translate(238.49277266181548 361.2169262635023) rotate(0 59.969560167718214 -50.31895395105994)"><path d="M92.51 -89.56 C102.04 -92.49, 113.44 -99.01, 119.18 -100.06 M91.18 -90.45 C101.35 -92.12, 110.57 -96.5, 119.82 -99.96" stroke="#000000" stroke-width="1" fill="none"></path></g></g><g stroke-linecap="round"><g transform="translate(66.27972861282035 261.75310513200657) rotate(0 54.58210603783067 48.85425642599921)"><path d="M0.61 0.21 C18.58 16.49, 89.57 82.34, 107.49 98.44 M-0.53 -0.73 C17.84 15.17, 91.74 80.4, 109.7 96.81" stroke="#000000" stroke-width="1" fill="none"></path></g><g transform="translate(66.27972861282035 261.75310513200657) rotate(0 54.58210603783067 48.85425642599921)"><path d="M82.2 84.05 C91.07 88.02, 95.9 93.18, 109.13 96.72 M81.67 86.38 C88.95 88.27, 97.77 92.19, 109.75 96.85" stroke="#000000" stroke-width="1" fill="none"></path></g><g transform="translate(66.27972861282035 261.75310513200657) rotate(0 54.58210603783067 48.85425642599921)"><path d="M95.89 68.77 C101.14 76.95, 102.25 86.27, 109.13 96.72 M95.36 71.09 C98.66 77.45, 103.55 85.76, 109.75 96.85" stroke="#000000" stroke-width="1" fill="none"></path></g></g><g stroke-linecap="round" transform="translate(355.3327096961225 28.41737810851714) rotate(0 29.0496826171875 29.0496826171875)"><path d="M26.76 -0.11 C32.67 -1.3, 40.36 0.42, 45.5 4.12 C50.65 7.82, 56.06 15.87, 57.63 22.08 C59.2 28.28, 57.5 35.96, 54.93 41.35 C52.35 46.73, 47.83 51.82, 42.16 54.37 C36.49 56.93, 27.17 58.1, 20.91 56.67 C14.64 55.25, 8.02 50.64, 4.58 45.82 C1.14 41, -0.5 34.03, 0.28 27.74 C1.06 21.46, 4.38 12.75, 9.27 8.12 C14.16 3.49, 25.52 1.32, 29.62 -0.04 C33.72 -1.4, 33.72 -0.68, 33.88 -0.05 M31.28 1.21 C37.22 1.28, 44.9 3.59, 49.17 8 C53.44 12.41, 56.44 21.21, 56.91 27.68 C57.38 34.15, 55.36 41.67, 52 46.83 C48.63 51.99, 42.61 57.23, 36.71 58.62 C30.81 60.01, 22.28 58.42, 16.62 55.17 C10.97 51.91, 5.35 44.92, 2.78 39.1 C0.2 33.27, -0.47 26.14, 1.17 20.19 C2.82 14.25, 7.43 6.83, 12.62 3.41 C17.82 -0.01, 29.18 0.39, 32.33 -0.3 C35.48 -0.99, 31.32 -1.37, 31.54 -0.71" stroke="#000000" stroke-width="1" fill="none"></path></g><g transform="translate(373.88239231331 44.96706072570464) rotate(0 10.5 12.5)"><text x="10.5" y="18" font-family="Virgil, Segoe UI Emoji" font-size="20px" fill="#000000" text-anchor="middle" style="white-space: pre;" direction="ltr">P1</text></g><g stroke-linecap="round"><g transform="translate(344.7432538269395 73.09048149113619) rotate(0 -135.23663388632127 59.09350158960194)"><path d="M-0.87 0.87 C-46.24 20.28, -226.34 97.04, -271.34 116.52 M0.87 0.28 C-44.22 19.86, -223.73 98.62, -269.21 117.91" stroke="#000000" stroke-width="1" fill="none"></path></g><g transform="translate(344.7432538269395 73.09048149113619) rotate(0 -135.23663388632127 59.09350158960194)"><path d="M-245.95 95.46 C-256.04 103.76, -262.06 111.15, -270.39 116.43 M-247.76 97.11 C-256.27 104.11, -264.07 113.06, -269.49 117.46" stroke="#000000" stroke-width="1" fill="none"></path></g><g transform="translate(344.7432538269395 73.09048149113619) rotate(0 -135.23663388632127 59.09350158960194)"><path d="M-237.81 114.3 C-250.95 115.49, -260.02 115.84, -270.39 116.43 M-239.62 115.94 C-251.12 115.93, -261.92 117.91, -269.49 117.46" stroke="#000000" stroke-width="1" fill="none"></path></g></g></svg>