<svg version="1.1" xmlns="http://www.w3.org/2000/svg" viewBox="0 0 1007.4067743563937 602.315197720443" width="1007.4067743563937" height="602.315197720443">
  <!-- svg-source:excalidraw -->
  
  <defs>
    <style>
      @font-face {
        font-family: "Virgil";
        src: url("https://excalidraw.com/Virgil.woff2");
      }
      @font-face {
        font-family: "Cascadia";
        src: url("https://excalidraw.com/Cascadia.woff2");
      }
    </style>
  </defs>
  <g stroke-linecap="round" transform="translate(677.4021048315681 57.34586360980529) rotate(0 42.39639129964348 42.396391299643426)"><path d="M16.76 8.9 C22.32 4.34, 32.67 1.61, 40.16 0.81 C47.64 0.01, 54.94 0.25, 61.65 4.08 C68.37 7.92, 76.57 16.88, 80.46 23.84 C84.34 30.8, 85.58 38.34, 84.98 45.86 C84.38 53.38, 81.73 62.59, 76.88 68.95 C72.03 75.32, 63.15 81.69, 55.87 84.04 C48.6 86.39, 40.18 84.87, 33.22 83.05 C26.26 81.23, 19.39 78.38, 14.12 73.09 C8.85 67.8, 3.5 58.75, 1.6 51.3 C-0.29 43.85, -1.38 36.24, 2.74 28.39 C6.87 20.55, 20.73 8.88, 26.36 4.22 C32 -0.44, 36.38 0.02, 36.55 0.43 M39.72 -1.73 C47.33 -1.95, 58.17 1.88, 65.25 6.26 C72.32 10.65, 78.52 17.95, 82.2 24.56 C85.87 31.17, 88.78 38.75, 87.27 45.91 C85.76 53.07, 78.72 61.02, 73.14 67.52 C67.57 74.01, 60.72 82.39, 53.83 84.9 C46.93 87.4, 39.26 85.24, 31.75 82.55 C24.24 79.86, 14.1 74.84, 8.77 68.75 C3.44 62.65, 0.96 53.24, -0.22 45.99 C-1.4 38.74, -1.76 31.87, 1.7 25.23 C5.16 18.58, 13.7 9.97, 20.53 6.13 C27.36 2.28, 39.16 2.59, 42.66 2.15 C46.16 1.71, 41.13 2.83, 41.54 3.49" stroke="#495057" stroke-width="4" fill="none"></path></g><g transform="translate(708.7984961312113 82.24225490944866) rotate(0 11 17.5)"><text x="11" y="25" font-family="Virgil, Segoe UI Emoji" font-size="28px" fill="#495057" text-anchor="middle" style="white-space: pre;" direction="ltr">B</text></g><g stroke-linecap="round" transform="translate(912.6139917571072 263.83697055770574) rotate(0 42.39639129964348 42.39639129964348)"><path d="M23.62 5.53 C29.64 1.4, 37.58 -1.76, 45.19 -0.89 C52.81 -0.01, 63.05 5.81, 69.3 10.76 C75.54 15.71, 80.19 21.72, 82.66 28.82 C85.14 35.92, 86.18 45.7, 84.14 53.37 C82.1 61.04, 76.03 69.88, 70.41 74.85 C64.79 79.82, 57.4 81.91, 50.42 83.18 C43.43 84.45, 35.48 85.2, 28.51 82.5 C21.55 79.8, 13.35 73.18, 8.63 67 C3.9 60.82, 0.53 52.87, 0.17 45.39 C-0.2 37.91, 0.16 29.79, 6.45 22.12 C12.74 14.45, 30.49 2.88, 37.9 -0.65 C45.31 -4.18, 51.06 0.26, 50.91 0.92 M7.99 17.59 C12.32 11.62, 20.37 6.31, 27.9 3.13 C35.44 -0.04, 46.15 -2.48, 53.18 -1.47 C60.21 -0.45, 65.15 3.28, 70.08 9.23 C75.01 15.17, 80.52 26.49, 82.76 34.21 C85 41.93, 86.14 48.92, 83.5 55.55 C80.86 62.19, 73.18 69.63, 66.9 74.01 C60.63 78.39, 53.48 80.8, 45.84 81.84 C38.2 82.89, 27.53 83.45, 21.06 80.29 C14.6 77.14, 10.46 69.19, 7.05 62.92 C3.64 56.64, 0.58 49.7, 0.62 42.64 C0.65 35.57, 5.43 24.26, 7.24 20.53 C9.05 16.81, 11.18 20.8, 11.45 20.28" stroke="#495057" stroke-width="4" fill="none"></path></g><g transform="translate(945.0103830567505 288.7333618573492) rotate(0 10 17.5)"><text x="10" y="25" font-family="Virgil, Segoe UI Emoji" font-size="28px" fill="#495057" text-anchor="middle" style="white-space: pre;" direction="ltr">C</text></g><g stroke-linecap="round" transform="translate(458.01654432888336 270.0873733481325) rotate(0 42.39639129964348 42.39639129964337)"><path d="M49.5 -0.28 C56.74 0.72, 66.86 8.06, 72.59 13.6 C78.32 19.15, 82.18 25.67, 83.9 32.99 C85.62 40.32, 85.72 50.09, 82.92 57.55 C80.13 65, 73.26 73.33, 67.12 77.71 C60.99 82.09, 53.2 83.31, 46.11 83.81 C39.01 84.31, 31.19 84.11, 24.55 80.7 C17.91 77.29, 10.33 69.95, 6.26 63.34 C2.2 56.73, -0.27 48.52, 0.16 41.04 C0.58 33.56, 4.13 24.97, 8.79 18.45 C13.45 11.94, 19.02 4.23, 28.14 1.95 C37.27 -0.33, 56.02 2.85, 63.56 4.76 C71.09 6.67, 74.05 12.92, 73.34 13.4 M20.68 6.89 C26.89 2.12, 37.91 -1.77, 45.07 -2.21 C52.24 -2.66, 57.83 -0.57, 63.66 4.22 C69.49 9, 76.45 19.28, 80.07 26.52 C83.69 33.75, 86.61 40.66, 85.39 47.63 C84.18 54.61, 78.04 62.93, 72.78 68.37 C67.52 73.81, 61.19 77.79, 53.83 80.27 C46.47 82.76, 35.64 85.08, 28.64 83.29 C21.63 81.5, 16.4 74.96, 11.8 69.54 C7.2 64.12, 2.47 57.76, 1.03 50.77 C-0.4 43.78, -0.35 34.61, 3.19 27.6 C6.73 20.59, 19.91 12.56, 22.27 8.73 C24.63 4.9, 17.43 3.88, 17.35 4.62" stroke="#495057" stroke-width="4" fill="none"></path></g><g transform="translate(490.4129356285275 294.98376464777596) rotate(0 10 17.5)"><text x="10" y="25" font-family="Virgil, Segoe UI Emoji" font-size="28px" fill="#495057" text-anchor="middle" style="white-space: pre;" direction="ltr">A</text></g><g stroke-linecap="round" transform="translate(684.8067165338744 487.8669624120474) rotate(0 42.39639129964348 42.39639129964337)"><path d="M57.71 4.38 C64.94 6.55, 71.79 11.22, 76.36 17.18 C80.94 23.15, 84.8 32.32, 85.13 40.17 C85.47 48.02, 82.09 57.88, 78.38 64.29 C74.66 70.69, 68.99 75.09, 62.83 78.6 C56.67 82.11, 48.91 85.73, 41.43 85.36 C33.95 84.99, 24.36 80.89, 17.95 76.39 C11.53 71.89, 5.63 65.31, 2.93 58.33 C0.24 51.35, 0 42.28, 1.78 34.5 C3.55 26.72, 8.33 17.36, 13.57 11.66 C18.8 5.96, 22.49 -0.71, 33.19 0.3 C43.89 1.31, 69.63 10.59, 77.76 17.74 C85.89 24.88, 82.75 42.54, 81.97 43.17 M41.02 -2 C47.71 -3.73, 53.94 -1.95, 60.14 2.21 C66.33 6.36, 73.93 16.03, 78.2 22.92 C82.47 29.82, 86.25 36.55, 85.76 43.59 C85.27 50.63, 79.95 59.28, 75.27 65.17 C70.59 71.06, 64.77 75.75, 57.65 78.93 C50.54 82.11, 39.75 85.31, 32.58 84.23 C25.41 83.15, 19.73 77.37, 14.61 72.46 C9.48 67.54, 3.97 61.6, 1.82 54.75 C-0.33 47.9, -1.16 38.65, 1.7 31.37 C4.56 24.1, 13.31 16.78, 18.98 11.1 C24.65 5.42, 32.49 -1.5, 35.73 -2.72 C38.96 -3.93, 37.58 3.04, 38.4 3.8" stroke="#495057" stroke-width="4" fill="none"></path></g><g transform="translate(715.2031078335167 512.7633537116909) rotate(0 12 17.5)"><text x="12" y="25" font-family="Virgil, Segoe UI Emoji" font-size="28px" fill="#495057" text-anchor="middle" style="white-space: pre;" direction="ltr">D</text></g><g stroke-linecap="round"><g transform="translate(676.5173461294371 135.25141536839658) rotate(0 -68.1208357276546 67.06921418521654)"><path d="M0.97 -1.36 C-21.99 21.02, -114.86 112.83, -137.21 135.5 M-1.95 4.08 C-24.02 25.5, -109.68 108.85, -131.61 131.17" stroke="#495057" stroke-width="4" fill="none"></path></g><g transform="translate(676.5173461294371 135.25141536839658) rotate(0 -68.1208357276546 67.06921418521654)"><path d="M-13.82 23.64 C-6.22 20.72, -3.34 9.44, 1.93 1.11 M-12.67 27.38 C-8.83 20.21, -6.75 13.52, 1.69 -0.46" stroke="#495057" stroke-width="4" fill="none"></path></g><g transform="translate(676.5173461294371 135.25141536839658) rotate(0 -68.1208357276546 67.06921418521654)"><path d="M-28.24 9.04 C-15.91 10.68, -8.42 4.06, 1.93 1.11 M-27.09 12.78 C-19.68 8.98, -14.3 5.62, 1.69 -0.46" stroke="#495057" stroke-width="4" fill="none"></path></g></g><g stroke-linecap="round"><g transform="translate(911.419384203703 267.97796086785013) rotate(0 -72.87732719389123 -60.48949840622322)"><path d="M-1.36 -1.47 C-26.12 -21.85, -122.83 -101, -147.3 -121.28 M3.1 3.9 C-22.03 -17.29, -123.38 -104.29, -148.85 -124.88" stroke="#495057" stroke-width="4" fill="none"></path></g><g transform="translate(911.419384203703 267.97796086785013) rotate(0 -72.87732719389123 -60.48949840622322)"><path d="M-31.77 -9.62 C-16.14 -7.14, -9.02 -3.33, 1.11 -4.35 M-28.03 -10.77 C-17.82 -7.44, -7.07 -2.57, -0.46 -0.78" stroke="#495057" stroke-width="4" fill="none"></path></g><g transform="translate(911.419384203703 267.97796086785013) rotate(0 -72.87732719389123 -60.48949840622322)"><path d="M-18.75 -25.49 C-7.5 -17.67, -4.86 -8.4, 1.11 -4.35 M-15.02 -26.64 C-10.02 -17.1, -4.45 -5.91, -0.46 -0.78" stroke="#495057" stroke-width="4" fill="none"></path></g></g><g stroke-linecap="round"><g transform="translate(689.1069950809037 491.03389279733267) rotate(0 -72.39430844230742 -68.37950253701251)"><path d="M-1.47 1.26 C-26.12 -21.52, -122.34 -114.85, -146.88 -138.02 M2.92 -0.53 C-21.95 -22.66, -122.2 -111.88, -147.71 -134.17" stroke="#495057" stroke-width="4" fill="none"></path></g><g transform="translate(689.1069950809037 491.03389279733267) rotate(0 -72.39430844230742 -68.37950253701251)"><path d="M-117.99 -119.49 C-128.45 -126.09, -137.41 -128.37, -150.58 -130.26 M-119.14 -122.59 C-127.91 -125.79, -135 -128.14, -147.02 -132.71" stroke="#495057" stroke-width="4" fill="none"></path></g><g transform="translate(689.1069950809037 491.03389279733267) rotate(0 -72.39430844230742 -68.37950253701251)"><path d="M-131.57 -104.11 C-137.34 -115.71, -141.75 -123.14, -150.58 -130.26 M-132.73 -107.21 C-137.48 -115.04, -140.67 -121.8, -147.02 -132.71" stroke="#495057" stroke-width="4" fill="none"></path></g></g><g stroke-linecap="round"><g transform="translate(912.5662460738104 346.5945154298623) rotate(0 -72.02490376418677 70.55365804888197)"><path d="M1.26 2.6 C-22.4 26.1, -119.24 116.58, -143.29 139.57 M-1.5 1.54 C-25.37 24.29, -121.48 112.57, -145.31 134.97" stroke="#495057" stroke-width="4" fill="none"></path></g><g transform="translate(912.5662460738104 346.5945154298623) rotate(0 -72.02490376418677 70.55365804888197)"><path d="M-127.92 108.85 C-134.27 116.07, -136.32 118.95, -141.4 134.44 M-131.02 108.07 C-134.65 116.02, -137.42 122.95, -143.85 133.9" stroke="#495057" stroke-width="4" fill="none"></path></g><g transform="translate(912.5662460738104 346.5945154298623) rotate(0 -72.02490376418677 70.55365804888197)"><path d="M-113.96 123.89 C-123.66 127.45, -129.23 126.55, -141.4 134.44 M-117.06 123.11 C-124.57 127.24, -130.97 130.25, -143.85 133.9" stroke="#495057" stroke-width="4" fill="none"></path></g></g><g stroke-linecap="round"><g transform="translate(895.6511741149611 309.5311010191832) rotate(0 -168.20676362462314 0.7938594583093845)"><path d="M2.6 0.4 C-53.36 0.81, -280.71 3.57, -337.18 3.67 M0.56 -1.84 C-55.56 -2.45, -282.74 -1.78, -339.01 -0.98" stroke="#495057" stroke-width="4" fill="none"></path></g></g><g stroke-linecap="round"><g transform="translate(730.610086239597 470.34739171417607) rotate(0 -3.69143392809292 -157.0836345272637)"><path d="M0.4 0.76 C-0.79 -51.49, -4.41 -259.08, -5.92 -310.85 M-2.82 -1.3 C-4.44 -53.14, -7.78 -262.83, -7.79 -314.92" stroke="#495057" stroke-width="4" fill="none"></path></g></g><g transform="translate(398.8150842651362 10) rotate(0 86 23)"><text x="0" y="32" font-family="Virgil, Segoe UI Emoji" font-size="36px" fill="#495057" text-anchor="start" style="white-space: pre;" direction="ltr">PARENTS</text></g><g stroke-linecap="round" transform="translate(240.85864821690438 77.02097620604604) rotate(0 42.39639129964348 42.396391299643426)"><path d="M17.41 7.99 C22.73 3.47, 32.88 0.95, 41.02 0.52 C49.16 0.1, 59.94 1.48, 66.26 5.43 C72.59 9.39, 75.82 17.58, 78.97 24.26 C82.13 30.94, 86.17 37.7, 85.2 45.51 C84.23 53.32, 78.03 65.11, 73.15 71.11 C68.26 77.1, 62.95 79.59, 55.87 81.47 C48.79 83.36, 38.08 84.47, 30.65 82.42 C23.22 80.37, 16.06 74.4, 11.3 69.2 C6.53 64, 3.63 58.5, 2.06 51.21 C0.49 43.92, -2.06 33.38, 1.89 25.47 C5.83 17.55, 20.89 7.29, 25.73 3.7 C30.57 0.11, 30.65 2.99, 30.95 3.92 M39.42 2.65 C46.2 1.46, 52.96 4.38, 59.58 7.32 C66.21 10.26, 75.46 13.84, 79.18 20.28 C82.91 26.72, 82.19 38.15, 81.94 45.97 C81.69 53.79, 81.52 60.87, 77.68 67.22 C73.84 73.57, 66.68 81.36, 58.89 84.09 C51.11 86.81, 38.4 85.66, 30.96 83.57 C23.52 81.48, 19.28 76.74, 14.25 71.56 C9.22 66.37, 2.48 59.62, 0.79 52.47 C-0.9 45.31, 1.38 36.1, 4.11 28.61 C6.84 21.13, 11.1 12.29, 17.16 7.55 C23.22 2.8, 37.12 1.38, 40.47 0.14 C43.81 -1.1, 37.28 -0.58, 37.24 0.11" stroke="#495057" stroke-width="4" fill="none"></path></g><g transform="translate(263.25503951654855 101.91736750568964) rotate(0 20 17.5)"><text x="20" y="25" font-family="Virgil, Segoe UI Emoji" font-size="28px" fill="#495057" text-anchor="middle" style="white-space: pre;" direction="ltr">P2</text></g><g stroke-linecap="round" transform="translate(243.7732351974455 507.5224151211561) rotate(0 42.39639129964348 42.39639129964348)"><path d="M51.52 1.7 C58.53 2.76, 69.18 5.85, 74.31 11.69 C79.43 17.53, 80.97 29.13, 82.27 36.76 C83.57 44.4, 84.87 50.9, 82.11 57.51 C79.34 64.13, 72.03 72.18, 65.68 76.45 C59.32 80.72, 51.26 82.42, 43.99 83.11 C36.72 83.8, 28.9 84.28, 22.04 80.59 C15.18 76.9, 6.27 68.17, 2.81 60.99 C-0.65 53.8, 0.23 44.77, 1.27 37.47 C2.3 30.17, 4.2 22.84, 9.03 17.21 C13.86 11.58, 20.45 5.15, 30.26 3.69 C40.08 2.23, 59.64 5.42, 67.93 8.46 C76.21 11.5, 80.07 21.62, 79.95 21.91 M69.39 13.17 C75.2 18.04, 82.5 25.2, 84.85 32.85 C87.2 40.49, 86.78 51.89, 83.51 59.05 C80.24 66.21, 71.25 71.73, 65.21 75.82 C59.16 79.9, 54.45 82.78, 47.26 83.55 C40.07 84.31, 28.79 83.72, 22.07 80.4 C15.34 77.07, 10.49 70.6, 6.91 63.61 C3.33 56.63, 0.12 46.24, 0.6 38.51 C1.08 30.78, 5.64 23.34, 9.79 17.23 C13.94 11.13, 18.48 4.64, 25.52 1.9 C32.56 -0.84, 43.99 -0.95, 52.02 0.79 C60.05 2.54, 70.15 10.62, 73.71 12.36 C77.27 14.11, 73.78 11.22, 73.39 11.26" stroke="#495057" stroke-width="4" fill="none"></path></g><g transform="translate(266.16962649708967 532.4188064207996) rotate(0 20 17.5)"><text x="20" y="25" font-family="Virgil, Segoe UI Emoji" font-size="28px" fill="#495057" text-anchor="middle" style="white-space: pre;" direction="ltr">P3</text></g><g stroke-linecap="round" transform="translate(9.999999999999545 278.1180005983555) rotate(0 42.39639129964348 42.39639129964337)"><path d="M7.41 18.07 C11.05 11.22, 17.26 6.1, 24.16 2.89 C31.07 -0.33, 40.91 -2.78, 48.84 -1.22 C56.76 0.35, 66.26 7.01, 71.71 12.27 C77.16 17.53, 79.48 23.37, 81.54 30.36 C83.59 37.36, 86.04 46.65, 84.05 54.27 C82.06 61.89, 75.36 70.82, 69.58 76.1 C63.8 81.38, 56.88 85.2, 49.37 85.97 C41.86 86.74, 31.39 84.12, 24.54 80.72 C17.69 77.31, 12.08 72.27, 8.27 65.56 C4.46 58.85, -1.53 50.87, 1.68 40.47 C4.88 30.07, 19.49 9.95, 27.49 3.18 C35.49 -3.59, 49.58 -0.97, 49.7 -0.17 M36.12 -0.2 C43.35 -1.92, 56.72 0.11, 63.88 3.87 C71.05 7.63, 75.4 15.4, 79.13 22.36 C82.87 29.32, 86.63 38.32, 86.29 45.64 C85.95 52.97, 81.62 60.25, 77.09 66.31 C72.56 72.36, 66.63 79.19, 59.11 81.98 C51.6 84.76, 39.59 84.6, 32.01 83.03 C24.43 81.46, 18.52 77.73, 13.62 72.55 C8.72 67.38, 4.15 59.66, 2.6 51.97 C1.06 44.28, 1.65 34.07, 4.35 26.42 C7.05 18.77, 13.09 10.77, 18.82 6.07 C24.56 1.38, 35.1 -0.55, 38.75 -1.74 C42.41 -2.94, 40.86 -2.53, 40.77 -1.08" stroke="#495057" stroke-width="4" fill="none"></path></g><g transform="translate(38.39639129964371 311.76439189799896) rotate(0 14 17.5)"><text x="14" y="25" font-family="Virgil, Segoe UI Emoji" font-size="28px" fill="#495057" text-anchor="middle" style="white-space: pre;" direction="ltr">P1</text></g><g stroke-linecap="round"><g transform="translate(462.82707967500573 279.55226621936174) rotate(0 -69.12433860029591 -60.517843939428985)"><path d="M2.67 -2.55 C-20.74 -22.24, -116.95 -98.86, -140.92 -118.77 M0.68 2.24 C-21.78 -18.27, -112.82 -102.88, -135.51 -123.28" stroke="#495057" stroke-width="4" fill="none"></path></g><g transform="translate(462.82707967500573 279.55226621936174) rotate(0 -69.12433860029591 -60.517843939428985)"><path d="M-29.34 -14.9 C-16.4 -13, -12.98 -6.23, -0.13 -4.99 M-27.07 -12.29 C-13.37 -6.8, -5.77 -4.94, 4.05 -4.12" stroke="#495057" stroke-width="4" fill="none"></path></g><g transform="translate(462.82707967500573 279.55226621936174) rotate(0 -69.12433860029591 -60.517843939428985)"><path d="M-16.43 -30.85 C-7.21 -24.2, -7.44 -12.91, -0.13 -4.99 M-14.17 -28.25 C-5.15 -17.12, -2.32 -9.36, 4.05 -4.12" stroke="#495057" stroke-width="4" fill="none"></path></g></g><g stroke-linecap="round"><g transform="translate(464.3797950942262 356.47125807319696) rotate(0 -67.58485938394006 74.70267215651756)"><path d="M2.35 -1.82 C-20.38 23.54, -112.62 125.65, -135.81 151.22 M0.18 3.37 C-22.89 27.99, -114.39 123.06, -137.52 147.03" stroke="#495057" stroke-width="4" fill="none"></path></g><g transform="translate(464.3797950942262 356.47125807319696) rotate(0 -67.58485938394006 74.70267215651756)"><path d="M-11.51 27.37 C-2.97 16.87, 1.24 6.97, 1.89 -0.24 M-9.54 25.98 C-7.83 19.01, -4.53 15.4, 0.96 -2.59" stroke="#495057" stroke-width="4" fill="none"></path></g><g transform="translate(464.3797950942262 356.47125807319696) rotate(0 -67.58485938394006 74.70267215651756)"><path d="M-26.75 13.62 C-13.42 7.28, -4.33 1.78, 1.89 -0.24 M-24.78 12.24 C-19.56 8.28, -12.97 7.65, 0.96 -2.59" stroke="#495057" stroke-width="4" fill="none"></path></g></g><g stroke-linecap="round"><g transform="translate(284.4276750434119 486.80139609903256) rotate(0 -0.027307962376426076 -154.24928709596827)"><path d="M-1.46 -0.42 C-1.34 -50.81, -1.59 -253.1, -1.92 -304.12 M2.95 -3.12 C3.12 -54.13, -1.69 -257.98, -3.01 -308.08" stroke="#495057" stroke-width="4" fill="none"></path></g><g transform="translate(284.4276750434119 486.80139609903256) rotate(0 -0.027307962376426076 -154.24928709596827)"><path d="M-12.34 -25.58 C-7.2 -21.82, -8.53 -13.52, 1.77 -2.72 M-13.68 -27.12 C-9.05 -22.67, -8.72 -16.62, -2.27 0.05" stroke="#495057" stroke-width="4" fill="none"></path></g><g transform="translate(284.4276750434119 486.80139609903256) rotate(0 -0.027307962376426076 -154.24928709596827)"><path d="M8.18 -25.59 C9.07 -22.05, 3.49 -13.75, 1.77 -2.72 M6.84 -27.14 C7.08 -22.84, 3.02 -16.78, -2.27 0.05" stroke="#495057" stroke-width="4" fill="none"></path></g></g><g stroke-linecap="round"><g transform="translate(233.82028915656247 153.89827171968375) rotate(0 -67.31349090904268 63.651722822674856)"><path d="M-1.09 0.09 C-24.25 21.82, -116.06 108.5, -138.14 129.63 M3.51 -2.33 C-18.87 18.63, -110.03 103.46, -132.98 125.4" stroke="#495057" stroke-width="4" fill="none"></path></g><g transform="translate(233.82028915656247 153.89827171968375) rotate(0 -67.31349090904268 63.651722822674856)"><path d="M-14.42 23.64 C-7.94 21.39, -7.4 11.84, -3.52 -2.55 M-13.17 26.97 C-7.8 16.68, -4.82 6.7, -0.23 -0.26" stroke="#495057" stroke-width="4" fill="none"></path></g><g transform="translate(233.82028915656247 153.89827171968375) rotate(0 -67.31349090904268 63.651722822674856)"><path d="M-28.51 8.72 C-17.45 11.5, -12.26 6.88, -3.52 -2.55 M-27.26 12.04 C-16.95 7.35, -8.83 2.82, -0.23 -0.26" stroke="#495057" stroke-width="4" fill="none"></path></g></g></svg>