<svg version="1.1" xmlns="http://www.w3.org/2000/svg" viewBox="0 0 559.3902300275104 600.0099135127512" width="559.3902300275104" height="600.0099135127512">
  <!-- svg-source:excalidraw -->
  
  <defs>
    <style>
      @font-face {
        font-family: "Virgil";
        src: url("https://excalidraw.com/Virgil.woff2");
      }
      @font-face {
        font-family: "Cascadia";
        src: url("https://excalidraw.com/Cascadia.woff2");
      }
    </style>
  </defs>
  <g stroke-linecap="round" transform="translate(229.38556050268426 74.69603211122222) rotate(0 42.39639129964348 42.396391299643426)"><path d="M54.87 1.17 C61.91 2.83, 71.44 10.51, 76.34 16.89 C81.24 23.26, 83.65 31.93, 84.28 39.42 C84.91 46.91, 83.64 55.45, 80.1 61.83 C76.57 68.2, 69.4 73.96, 63.09 77.68 C56.79 81.41, 49.94 84.04, 42.27 84.18 C34.6 84.32, 23.56 82.67, 17.06 78.52 C10.56 74.36, 5.93 66.31, 3.28 59.24 C0.63 52.18, 0.01 43.83, 1.15 36.11 C2.29 28.39, 5.16 18.97, 10.13 12.91 C15.1 6.85, 20.55 -0.58, 30.95 -0.23 C41.35 0.11, 63.69 9.93, 72.54 14.97 C81.38 20.02, 84.33 29.63, 84 30.04 M59.44 1.32 C65.55 3.92, 71.92 12.74, 75.68 19.65 C79.44 26.57, 81.64 35.59, 81.98 42.79 C82.31 50, 80.95 56.34, 77.68 62.89 C74.4 69.43, 69.78 78.35, 62.34 82.06 C54.9 85.77, 41.17 86.37, 33.05 85.17 C24.93 83.97, 18.76 80, 13.63 74.86 C8.5 69.71, 4.49 61.83, 2.28 54.3 C0.08 46.77, -1.77 37.3, 0.42 29.68 C2.61 22.07, 9.21 13.36, 15.44 8.61 C21.67 3.85, 30.64 1.53, 37.78 1.16 C44.92 0.78, 54.71 5.62, 58.27 6.36 C61.83 7.1, 58.61 5.01, 59.13 5.59" stroke="#495057" stroke-width="4" fill="none"></path></g><g transform="translate(261.7819518023275 99.59242341086565) rotate(0 10 17.5)"><text x="10" y="25" font-family="Virgil, Segoe UI Emoji" font-size="28px" fill="#495057" text-anchor="middle" style="white-space: pre;" direction="ltr">A</text></g><g stroke-linecap="round" transform="translate(464.5974474282234 281.1871390591228) rotate(0 42.39639129964348 42.396391299643426)"><path d="M33.89 -0.04 C40.75 -2.16, 50.29 0.07, 57.22 3.04 C64.16 6.01, 70.85 11.93, 75.52 17.78 C80.19 23.63, 84.31 30.72, 85.23 38.13 C86.15 45.54, 84.75 55.03, 81.05 62.26 C77.35 69.5, 69.81 78, 63.05 81.56 C56.28 85.12, 48.25 84.44, 40.46 83.63 C32.67 82.82, 22.83 80.84, 16.3 76.7 C9.77 72.56, 3.69 66.31, 1.3 58.79 C-1.09 51.27, 0.27 39.52, 1.97 31.58 C3.68 23.63, 4.21 16.45, 11.51 11.1 C18.82 5.76, 37.96 0.54, 45.79 -0.52 C53.63 -1.57, 58.18 3.92, 58.51 4.77 M66.27 4.82 C73.48 8.34, 79.11 18.22, 82.03 24.65 C84.95 31.07, 84.64 36.34, 83.78 43.37 C82.92 50.4, 81.74 60.23, 76.87 66.82 C72.01 73.41, 61.69 79.83, 54.59 82.92 C47.49 86, 41.46 87.59, 34.25 85.35 C27.05 83.12, 17.03 75.73, 11.34 69.51 C5.65 63.28, 1.08 55.26, 0.11 48.02 C-0.86 40.78, 2.67 32.62, 5.51 26.08 C8.35 19.54, 11.81 13.27, 17.12 8.78 C22.44 4.28, 29.22 -0.35, 37.39 -0.86 C45.56 -1.37, 61.39 4.27, 66.13 5.73 C70.86 7.18, 66.37 7, 65.78 7.86" stroke="#495057" stroke-width="4" fill="none"></path></g><g transform="translate(495.99383872786666 306.0835303587662) rotate(0 11 17.5)"><text x="11" y="25" font-family="Virgil, Segoe UI Emoji" font-size="28px" fill="#495057" text-anchor="middle" style="white-space: pre;" direction="ltr">B</text></g><g stroke-linecap="round" transform="translate(10 287.6096772394736) rotate(0 42.39639129964348 42.396391299643426)"><path d="M48.99 -1.02 C56.67 -0.79, 65.96 4.17, 71.73 9.73 C77.5 15.29, 81.5 25.06, 83.61 32.33 C85.71 39.59, 86.7 46.23, 84.37 53.33 C82.04 60.43, 75.84 69.48, 69.62 74.95 C63.41 80.42, 54.42 85.41, 47.1 86.15 C39.78 86.88, 32.62 83.02, 25.71 79.35 C18.81 75.68, 10.22 70.43, 5.65 64.13 C1.09 57.83, -1.54 49.03, -1.68 41.55 C-1.81 34.07, 0.28 25.53, 4.83 19.25 C9.38 12.97, 16.05 6.52, 25.63 3.88 C35.21 1.25, 54.73 1.61, 62.31 3.43 C69.89 5.25, 71.67 13.78, 71.11 14.81 M69.02 7.11 C74.97 11.58, 77.55 20.72, 80.27 28.44 C82.98 36.15, 86.76 46.44, 85.31 53.4 C83.86 60.37, 77.39 65.6, 71.57 70.23 C65.75 74.86, 57.33 79.37, 50.38 81.19 C43.43 83.01, 36.96 83.31, 29.87 81.16 C22.78 79.01, 13.24 74.45, 7.83 68.28 C2.42 62.12, -2.65 51.89, -2.6 44.18 C-2.55 36.46, 3.5 28.26, 8.14 22 C12.77 15.74, 18.74 10, 25.23 6.63 C31.72 3.26, 40.12 1.42, 47.09 1.79 C54.06 2.16, 63.55 7.28, 67.06 8.84 C70.57 10.41, 68.25 10.88, 68.14 11.18" stroke="#495057" stroke-width="4" fill="none"></path></g><g transform="translate(40.396391299643255 312.50606853911705) rotate(0 12 17.5)"><text x="12" y="25" font-family="Virgil, Segoe UI Emoji" font-size="28px" fill="#495057" text-anchor="middle" style="white-space: pre;" direction="ltr">D</text></g><g stroke-linecap="round" transform="translate(236.79017220499054 505.21713091346436) rotate(0 42.39639129964348 42.396391299643426)"><path d="M30.29 1.14 C36.82 -1.95, 45.37 -0.55, 52.34 1.8 C59.31 4.16, 66.65 10.03, 72.11 15.27 C77.56 20.51, 83.67 26.22, 85.07 33.25 C86.47 40.28, 83.87 50.25, 80.52 57.44 C77.16 64.63, 71.34 71.87, 64.92 76.39 C58.5 80.91, 49.24 84.14, 42.02 84.57 C34.8 84.99, 27.68 82.97, 21.6 78.94 C15.52 74.91, 9.17 66.9, 5.53 60.39 C1.89 53.87, -0.82 47.05, -0.26 39.85 C0.3 32.65, 0.37 23.84, 8.9 17.21 C17.43 10.57, 41.39 1.2, 50.94 0.06 C60.49 -1.09, 66.72 9.78, 66.21 10.35 M49.63 -1.64 C56.5 -1.62, 64.7 3.37, 70.79 8.87 C76.87 14.37, 84.25 23.37, 86.13 31.35 C88.02 39.34, 85.44 49.58, 82.1 56.8 C78.75 64.02, 71.53 70, 66.09 74.67 C60.64 79.33, 56.11 83.6, 49.43 84.78 C42.76 85.96, 33.08 84.99, 26.03 81.77 C18.98 78.55, 11.63 72.27, 7.14 65.44 C2.64 58.61, -1.16 48.39, -0.96 40.78 C-0.76 33.18, 3.61 26.34, 8.34 19.83 C13.06 13.32, 20.75 5.37, 27.38 1.73 C34 -1.9, 43.91 -2.28, 48.09 -2 C52.27 -1.72, 52.63 2.42, 52.44 3.43" stroke="#495057" stroke-width="4" fill="none"></path></g><g transform="translate(269.1865635046329 530.1135222131078) rotate(0 10 17.5)"><text x="10" y="25" font-family="Virgil, Segoe UI Emoji" font-size="28px" fill="#495057" text-anchor="middle" style="white-space: pre;" direction="ltr">C</text></g><g stroke-linecap="round"><g transform="translate(228.50080180055284 152.6015838698134) rotate(0 -69.12710237405008 67.74455652290028)"><path d="M-2.76 0.8 C-25.67 24.02, -114.17 114.83, -136.53 136.73 M0.93 -1.24 C-22.5 21.48, -115.81 110.43, -139.19 132.98" stroke="#495057" stroke-width="4" fill="none"></path></g></g><g stroke-linecap="round"><g transform="translate(463.574538151006 285.3281293692671) rotate(0 -73.57440054902213 -61.183401437758704)"><path d="M2.05 -1.28 C-22.84 -22.54, -122.53 -106, -147.52 -126.56 M-0.29 4.2 C-25.62 -16.92, -124.36 -103.36, -149.19 -124.39" stroke="#495057" stroke-width="4" fill="none"></path></g></g><g stroke-linecap="round"><g transform="translate(241.0904507520204 508.3840612987495) rotate(0 -73.94892151546856 -69.11899406469412)"><path d="M1.27 -2.48 C-23.21 -26.09, -122.55 -117.68, -147.82 -140.59 M-1.49 2.35 C-26.11 -21.09, -123.98 -114.88, -149.17 -138.21" stroke="#495057" stroke-width="4" fill="none"></path></g></g><g stroke-linecap="round"><g transform="translate(464.549701744927 363.9446839312792) rotate(0 -71.43620973730708 70.56331996299218)"><path d="M-0.93 1.63 C-24.94 24.88, -120.66 118.46, -144.15 141.08 M3.76 0.05 C-20.65 22.39, -122.23 114.03, -146.64 137.3" stroke="#495057" stroke-width="4" fill="none"></path></g></g><g stroke-linecap="round"><g transform="translate(447.6346297860773 326.88126952060014) rotate(0 -168.4969280656503 0.8276349567585441)"><path d="M1.16 -0.59 C-55.3 0.52, -280.45 4.65, -336.63 5.04 M-1.66 -3.39 C-58.57 -2.91, -282.33 -0.19, -338.15 1.06" stroke="#495057" stroke-width="4" fill="none"></path></g></g><g stroke-linecap="round"><g transform="translate(282.59354191071316 487.697560215593) rotate(0 -1.8314446887056874 -155.30020007086318)"><path d="M-1.3 2.56 C-2.2 -49.67, -4.09 -260.32, -5.31 -313.16 M3.19 1.48 C2.02 -50.33, -5.85 -257.53, -6.85 -309.85" stroke="#495057" stroke-width="4" fill="none"></path></g></g><g transform="translate(141.5881108629028 10) rotate(0 126 22.5)"><text x="0" y="32" font-family="Virgil, Segoe UI Emoji" font-size="36px" fill="#495057" text-anchor="start" style="white-space: pre;" direction="ltr">UNDIRECTED</text></g></svg>